<svg width="121" height="29" viewBox="0 0 121 29" fill="none" xmlns="http://www.w3.org/2000/svg">
<path fill-rule="evenodd" clip-rule="evenodd" d="M0 28.1768V0.75H0.0205137L3.17963 3.01677V26.0537L0 28.1768ZM6.86727 23.6022L10.0366 21.4944V7.45275L6.90317 5.37061L6.86727 23.6022ZM13.7597 19.0277L16.8931 16.8481V12.1146L13.7135 9.83245L13.7597 19.0277Z" fill="white"/>
<path fill-rule="evenodd" clip-rule="evenodd" d="M56.8798 13.1867C54.5617 12.7457 53.4642 12.5098 53.4642 11.3661C53.4642 10.2892 54.3822 9.74556 55.6643 9.74556C57.1208 9.74556 58.0234 10.5661 58.1619 11.7456H61.1005C61.0594 9.06861 58.9619 7.35059 55.6643 7.35059C52.3668 7.35059 50.4487 9.10964 50.4487 11.5867C50.4487 14.4227 52.5257 15.1817 54.8848 15.6227C57.2234 16.0843 58.3619 16.3202 58.3619 17.4997C58.3619 18.5972 57.3413 19.1973 55.9618 19.1973C54.2438 19.1973 53.1668 18.2588 53.0642 16.8997L50.1256 16.8587C50.1462 19.6947 52.3616 21.5768 55.9208 21.5768C59.1978 21.5768 61.3569 19.7768 61.3774 17.1613C61.3979 14.3458 59.2799 13.6227 56.8798 13.1867ZM31.2526 7.4684H36.3503V7.46327C40.7043 7.46327 43.6019 10.3403 43.6019 14.4379C43.6019 18.5355 40.7043 21.4536 36.3503 21.4536H31.2526V7.4684ZM34.2528 18.9561H36.3503V18.9612C39.0273 18.9612 40.5248 17.1201 40.5248 14.4431C40.5248 11.766 39.0273 9.96594 36.3503 9.96594H34.2528V18.9561ZM45.1094 7.46878H48.1044V21.454H45.1094V7.46878ZM73.3361 16.0638H69.859L69.8487 16.0587V13.6791H76.1054V21.4538H74.0079L73.7104 19.7768C72.9719 20.7563 71.6129 21.5768 69.6333 21.5768C65.6383 21.5768 62.9818 18.7613 62.9818 14.4637C62.9818 10.1661 65.6178 7.35059 69.9154 7.35059C73.2899 7.35059 75.6695 9.43273 76.0285 12.4482H73.0335C72.6745 10.9097 71.5565 9.88916 69.8385 9.88916C67.4999 9.88916 66.0434 11.7662 66.0434 14.4637C66.0434 17.1613 67.4435 19.0383 69.8385 19.0383C71.4385 19.0383 73.054 18.2023 73.3361 16.2433V16.0638ZM86.6755 15.582C86.6755 17.7974 85.855 18.9975 83.9165 18.9975C81.9779 18.9975 81.1779 17.7974 81.1779 15.582V7.46878H78.1777V15.423C78.1777 19.3975 80.1573 21.5771 83.9113 21.5771C87.6653 21.5771 89.6654 19.3975 89.6654 15.423V7.46878H86.6704V15.582H86.6755ZM92.1577 7.46878H95.1527V21.454H92.1577V7.46878ZM103.876 13.1867C101.558 12.7457 100.46 12.5098 100.46 11.3661C100.46 10.2892 101.378 9.74556 102.661 9.74556C104.117 9.74556 105.02 10.5661 105.158 11.7456H108.097C108.056 9.06861 105.958 7.35059 102.661 7.35059C99.363 7.35059 97.445 9.10964 97.445 11.5867C97.445 14.4227 99.522 15.1817 101.881 15.6227C104.22 16.0843 105.358 16.3202 105.358 17.4997C105.358 18.5972 104.338 19.1973 102.958 19.1973C101.24 19.1973 100.163 18.2588 100.06 16.8997L97.1219 16.8587C97.1424 19.6947 99.3579 21.5768 102.917 21.5768C106.194 21.5768 108.353 19.7768 108.374 17.1613C108.394 14.3458 106.276 13.6227 103.876 13.1867ZM113.441 15.6435V18.8795H120.051V21.4591H110.441V7.46878H119.831V10.0484H113.441V13.187H118.636V15.6435H113.441Z" fill="white"/>
</svg>
